<svg id="Layer_1" data-name="Layer 1" xmlns="http://www.w3.org/2000/svg" xmlns:xlink="http://www.w3.org/1999/xlink" viewBox="0 0 855.06 552.1"><defs><style>.cls-1{fill:#4875ba;}.cls-2{fill:#eeeae1;}.cls-3{fill:#10262e;}.cls-4{font-size:168.62px;font-family:Higher;}.cls-4,.cls-5{fill:#fff;stroke:#fff;stroke-miterlimit:10;}.cls-6{font-size:27.83px;fill:#231f20;font-family:KozGoPr6N-Regular-90ms-RKSJ-H, Kozuka Gothic Pr6N;}.cls-7{fill:#fbdf00;}.cls-8{fill:#663515;}.cls-9{fill:url(#linear-gradient);}.cls-10{fill:url(#linear-gradient-2);}.cls-11{fill:url(#linear-gradient-3);}.cls-12{fill:url(#linear-gradient-4);}.cls-13{fill:url(#linear-gradient-5);}.cls-14{fill:url(#linear-gradient-6);}.cls-15{fill:url(#linear-gradient-7);}.cls-16{fill:url(#radial-gradient);}.cls-17{fill:url(#radial-gradient-2);}.cls-18{fill:url(#radial-gradient-3);}.cls-19{fill:url(#radial-gradient-4);}.cls-20{fill:url(#linear-gradient-8);}.cls-21{fill:url(#linear-gradient-9);}.cls-22{fill:url(#linear-gradient-10);}.cls-23{fill:url(#linear-gradient-11);}.cls-24{fill:url(#linear-gradient-12);}.cls-25{fill:url(#linear-gradient-13);}.cls-26{fill:url(#linear-gradient-14);}.cls-27{fill:url(#linear-gradient-15);}.cls-28{fill:url(#radial-gradient-5);}.cls-29{fill:url(#linear-gradient-16);}.cls-30{fill:url(#radial-gradient-6);}.cls-31{fill:url(#linear-gradient-17);}.cls-32{fill:url(#linear-gradient-18);}.cls-33{fill:url(#linear-gradient-19);}.cls-34{fill:url(#linear-gradient-20);}.cls-35{fill:url(#radial-gradient-7);}.cls-36{fill:url(#radial-gradient-8);}.cls-37{fill:url(#radial-gradient-9);}.cls-38{fill:url(#radial-gradient-10);}.cls-39{fill:url(#radial-gradient-11);}.cls-40{fill:url(#radial-gradient-12);}.cls-41{fill:url(#radial-gradient-13);}.cls-42{fill:url(#radial-gradient-14);}.cls-43{fill:url(#linear-gradient-21);}.cls-44{fill:url(#linear-gradient-22);}.cls-45{fill:url(#linear-gradient-23);}.cls-46{fill:url(#linear-gradient-24);}.cls-47{fill:url(#linear-gradient-25);}.cls-48{fill:url(#linear-gradient-26);}.cls-49{fill:url(#linear-gradient-27);}.cls-50{fill:url(#linear-gradient-28);}.cls-51{fill:url(#linear-gradient-29);}.cls-52{fill:url(#linear-gradient-30);}.cls-53{fill:url(#linear-gradient-31);}.cls-54{fill:url(#linear-gradient-32);}.cls-55{fill:url(#radial-gradient-15);}.cls-56{fill:url(#radial-gradient-16);}.cls-57{fill:url(#linear-gradient-33);}.cls-58{fill:url(#radial-gradient-17);}.cls-59{fill:url(#radial-gradient-18);}.cls-60{fill:url(#radial-gradient-19);}.cls-61{fill:url(#radial-gradient-20);}.cls-62{fill:url(#radial-gradient-21);}.cls-63{fill:url(#radial-gradient-22);}.cls-64{fill:url(#radial-gradient-23);}.cls-65{fill:url(#radial-gradient-24);}.cls-66{fill:url(#radial-gradient-25);}.cls-67{fill:url(#radial-gradient-26);}</style><linearGradient id="linear-gradient" x2="1" gradientTransform="matrix(2.07, -6.49, -6.49, -2.07, 278.34, 529.7)" gradientUnits="userSpaceOnUse"><stop offset="0" stop-color="#653515"/><stop offset="0.69" stop-color="#653515"/><stop offset="0.77" stop-color="#a7800c"/><stop offset="0.86" stop-color="#fbde00"/><stop offset="1" stop-color="#fbde00"/></linearGradient><linearGradient id="linear-gradient-2" x2="1" gradientTransform="matrix(4.63, 20.2, 20.2, -4.63, 270.97, 524.12)" gradientUnits="userSpaceOnUse"><stop offset="0" stop-color="#fbde00"/><stop offset="0.04" stop-color="#fbde00"/><stop offset="0.94" stop-color="#fbde00"/><stop offset="0.95" stop-color="#f4d601"/><stop offset="0.96" stop-color="#e0c004"/><stop offset="0.97" stop-color="#c09c08"/><stop offset="0.99" stop-color="#946a0e"/><stop offset="1" stop-color="#653515"/></linearGradient><linearGradient id="linear-gradient-3" x2="1" gradientTransform="matrix(0, 18.5, 18.5, 0, 268.79, 523.99)" gradientUnits="userSpaceOnUse"><stop offset="0" stop-color="#32150c" stop-opacity="0"/><stop offset="0.02" stop-color="#32150c" stop-opacity="0"/><stop offset="0.1" stop-color="#32150c" stop-opacity="0.2"/><stop offset="0.34" stop-color="#32150c" stop-opacity="0.5"/><stop offset="0.63" stop-color="#32150c" stop-opacity="0.2"/><stop offset="0.86" stop-color="#32150c" stop-opacity="0.5"/><stop offset="1" stop-color="#32150c" stop-opacity="0"/><stop offset="1" stop-color="#32150c" stop-opacity="0"/></linearGradient><linearGradient id="linear-gradient-4" x2="1" gradientTransform="matrix(0, 18.08, 18.08, 0, 268.79, 524.3)" gradientUnits="userSpaceOnUse"><stop offset="0" stop-color="#fbde00"/><stop offset="0.03" stop-color="#fbde00"/><stop offset="0.05" stop-color="#fbda02" stop-opacity="0.94"/><stop offset="0.09" stop-color="#fbcf08" stop-opacity="0.8"/><stop offset="0.17" stop-color="#faca0b" stop-opacity="0.71"/><stop offset="0.32" stop-color="#f9c013" stop-opacity="0.5"/><stop offset="0.44" stop-color="#fbcf08" stop-opacity="0.2"/><stop offset="0.5" stop-color="#faca0b" stop-opacity="0.29"/><stop offset="0.61" stop-color="#f9c013" stop-opacity="0.5"/><stop offset="0.92" stop-color="#fbcf08" stop-opacity="0.5"/><stop offset="0.95" stop-color="#fbd405" stop-opacity="0.68"/><stop offset="0.99" stop-color="#fbde00"/><stop offset="1" stop-color="#fbde00"/></linearGradient><linearGradient id="linear-gradient-5" x2="1" gradientTransform="matrix(1.06, -1.88, -1.88, -1.06, 276.47, 524.93)" gradientUnits="userSpaceOnUse"><stop offset="0" stop-color="#fbde00" stop-opacity="0"/><stop offset="0.8" stop-color="#fbde00" stop-opacity="0"/><stop offset="0.83" stop-color="#efd002" stop-opacity="0.08"/><stop offset="0.87" stop-color="#ceab06" stop-opacity="0.3"/><stop offset="0.91" stop-color="#996f0e" stop-opacity="0.65"/><stop offset="0.95" stop-color="#653515"/><stop offset="1" stop-color="#653515"/></linearGradient><linearGradient id="linear-gradient-6" x2="1" gradientTransform="matrix(-1.3, -2.38, -2.38, 1.3, 277.56, 544.9)" gradientUnits="userSpaceOnUse"><stop offset="0" stop-color="#fbde00"/><stop offset="0.07" stop-color="#fbde00"/><stop offset="0.09" stop-color="#f4d700" stop-opacity="0.97"/><stop offset="0.11" stop-color="#e1c402" stop-opacity="0.87"/><stop offset="0.14" stop-color="#c2a503" stop-opacity="0.72"/><stop offset="0.17" stop-color="#977a06" stop-opacity="0.5"/><stop offset="0.21" stop-color="#604309" stop-opacity="0.23"/><stop offset="0.24" stop-color="#32150c" stop-opacity="0"/><stop offset="0.4" stop-color="#32150c"/><stop offset="0.73" stop-color="#32150c" stop-opacity="0.5"/><stop offset="0.98" stop-color="#32150c" stop-opacity="0"/><stop offset="1" stop-color="#32150c" stop-opacity="0"/></linearGradient><linearGradient id="linear-gradient-7" x2="1" gradientTransform="matrix(6.76, 0, 0, -6.76, 271.33, 516.39)" gradientUnits="userSpaceOnUse"><stop offset="0" stop-color="#fbde00"/><stop offset="0.03" stop-color="#fbde00"/><stop offset="0.05" stop-color="#f3d600" stop-opacity="0.98"/><stop offset="0.08" stop-color="#dec102" stop-opacity="0.93"/><stop offset="0.11" stop-color="#bc9f04" stop-opacity="0.84"/><stop offset="0.16" stop-color="#8c6f07" stop-opacity="0.72"/><stop offset="0.21" stop-color="#4f320a" stop-opacity="0.57"/><stop offset="0.23" stop-color="#32150c" stop-opacity="0.5"/><stop offset="0.42" stop-color="#32150c"/><stop offset="0.56" stop-color="#32150c"/><stop offset="0.66" stop-color="#32150c" stop-opacity="0.5"/><stop offset="0.8" stop-color="#32150c" stop-opacity="0"/><stop offset="1" stop-color="#32150c" stop-opacity="0"/></linearGradient><radialGradient id="radial-gradient" cx="0" cy="0" r="1" gradientTransform="matrix(2.16, 0, 0, -1.58, 274.01, 544.78)" gradientUnits="userSpaceOnUse"><stop offset="0" stop-color="#fff" stop-opacity="0.85"/><stop offset="0.37" stop-color="#fff" stop-opacity="0.9"/><stop offset="1" stop-color="#fff" stop-opacity="0"/></radialGradient><radialGradient id="radial-gradient-2" cx="0" cy="0" r="1" gradientTransform="translate(273.29 523.67) scale(1.35 0.97)" gradientUnits="userSpaceOnUse"><stop offset="0" stop-color="#fff" stop-opacity="0.85"/><stop offset="0.68" stop-color="#fff" stop-opacity="0.5"/><stop offset="1" stop-color="#fff" stop-opacity="0"/></radialGradient><radialGradient id="radial-gradient-3" cx="0" cy="0" r="1" gradientTransform="translate(274.92 533.87) rotate(90) scale(15.29 0.26)" gradientUnits="userSpaceOnUse"><stop offset="0" stop-color="#32150c" stop-opacity="0.5"/><stop offset="1" stop-color="#32150c" stop-opacity="0"/></radialGradient><radialGradient id="radial-gradient-4" cx="0" cy="0" r="1" gradientTransform="translate(274.9 533.65) rotate(90) scale(22.17 0.28)" gradientUnits="userSpaceOnUse"><stop offset="0" stop-color="#fff" stop-opacity="0.7"/><stop offset="0.94" stop-color="#fff" stop-opacity="0"/><stop offset="1" stop-color="#fff" stop-opacity="0"/></radialGradient><linearGradient id="linear-gradient-8" x2="1" gradientTransform="matrix(2.09, -6.56, -6.56, -2.09, 304.25, 529.73)" gradientUnits="userSpaceOnUse"><stop offset="0" stop-color="#653515"/><stop offset="0.75" stop-color="#653515"/><stop offset="0.81" stop-color="#a7800c"/><stop offset="0.88" stop-color="#fbde00"/><stop offset="1" stop-color="#fbde00"/></linearGradient><linearGradient id="linear-gradient-9" x2="1" gradientTransform="matrix(5.35, 20.66, 20.66, -5.35, 281.62, 523.44)" gradientUnits="userSpaceOnUse"><stop offset="0" stop-color="#fbde00"/><stop offset="0.01" stop-color="#fbde00"/><stop offset="0.05" stop-color="#fbde00"/><stop offset="0.95" stop-color="#fbde00"/><stop offset="0.95" stop-color="#f4d601"/><stop offset="0.96" stop-color="#e0c004"/><stop offset="0.97" stop-color="#c09c08"/><stop offset="0.98" stop-color="#946a0e"/><stop offset="0.99" stop-color="#653515"/><stop offset="1" stop-color="#653515"/></linearGradient><linearGradient id="linear-gradient-10" x2="1" gradientTransform="matrix(0, 18.44, 18.44, 0, 281.04, 523.68)" gradientUnits="userSpaceOnUse"><stop offset="0" stop-color="#fbde00"/><stop offset="0.04" stop-color="#fbde00"/><stop offset="1" stop-color="#fbde00"/></linearGradient><linearGradient id="linear-gradient-11" x2="1" gradientTransform="matrix(0, 18.57, 18.57, 0, 281.04, 527.6)" gradientUnits="userSpaceOnUse"><stop offset="0" stop-color="#fbde00"/><stop offset="0.88" stop-color="#fbde00"/><stop offset="0.88" stop-color="#f4d601"/><stop offset="0.9" stop-color="#e0c004"/><stop offset="0.91" stop-color="#c09c08"/><stop offset="0.93" stop-color="#946a0e"/><stop offset="0.95" stop-color="#653515"/><stop offset="1" stop-color="#653515"/></linearGradient><linearGradient id="linear-gradient-12" x2="1" gradientTransform="matrix(0, 16.42, 16.42, 0, 281.04, 525.87)" gradientUnits="userSpaceOnUse"><stop offset="0" stop-color="#32150c"/><stop offset="0.01" stop-color="#32150c"/><stop offset="0.12" stop-color="#32150c" stop-opacity="0.2"/><stop offset="0.34" stop-color="#32150c" stop-opacity="0.5"/><stop offset="0.84" stop-color="#32150c" stop-opacity="0.2"/><stop offset="1" stop-color="#32150c" stop-opacity="0"/><stop offset="1" stop-color="#32150c" stop-opacity="0"/></linearGradient><linearGradient id="linear-gradient-13" x2="1" gradientTransform="matrix(0, 17.03, 17.03, 0, 281.04, 525.78)" gradientUnits="userSpaceOnUse"><stop offset="0" stop-color="#fbde00"/><stop offset="0.02" stop-color="#fbde00"/><stop offset="0.06" stop-color="#fbda02" stop-opacity="0.77"/><stop offset="0.13" stop-color="#fbd206" stop-opacity="0.36"/><stop offset="0.16" stop-color="#fbcf08" stop-opacity="0.2"/><stop offset="0.31" stop-color="#fbcf08" stop-opacity="0.8"/><stop offset="0.38" stop-color="#faca0b" stop-opacity="0.71"/><stop offset="0.51" stop-color="#f9c013" stop-opacity="0.5"/><stop offset="0.74" stop-color="#f9c013" stop-opacity="0.5"/><stop offset="0.92" stop-color="#fbcf08" stop-opacity="0.5"/><stop offset="0.95" stop-color="#fbd405" stop-opacity="0.68"/><stop offset="0.99" stop-color="#fbde00"/><stop offset="1" stop-color="#fbde00"/></linearGradient><linearGradient id="linear-gradient-14" x2="1" gradientTransform="matrix(0, -20.65, -20.65, 0, 281.04, 544.71)" gradientUnits="userSpaceOnUse"><stop offset="0" stop-color="#32150c" stop-opacity="0.5"/><stop offset="0.09" stop-color="#32150c" stop-opacity="0.5"/><stop offset="0.26" stop-color="#32150c" stop-opacity="0.2"/><stop offset="0.45" stop-color="#32150c" stop-opacity="0.2"/><stop offset="0.5" stop-color="#32150c" stop-opacity="0"/><stop offset="0.86" stop-color="#32150c" stop-opacity="0.5"/><stop offset="0.99" stop-color="#32150c" stop-opacity="0"/><stop offset="1" stop-color="#32150c" stop-opacity="0"/></linearGradient><linearGradient id="linear-gradient-15" x2="1" gradientTransform="matrix(0, 17.54, 17.54, 0, 281.04, 524.36)" gradientUnits="userSpaceOnUse"><stop offset="0" stop-color="#fbde00"/><stop offset="0.02" stop-color="#fbde00"/><stop offset="0.04" stop-color="#fbda02" stop-opacity="0.94"/><stop offset="0.09" stop-color="#fbcf08" stop-opacity="0.8"/><stop offset="0.17" stop-color="#faca0b" stop-opacity="0.71"/><stop offset="0.32" stop-color="#f9c013" stop-opacity="0.5"/><stop offset="0.44" stop-color="#fbcf08" stop-opacity="0.2"/><stop offset="0.5" stop-color="#faca0b" stop-opacity="0.29"/><stop offset="0.61" stop-color="#f9c013" stop-opacity="0.5"/><stop offset="0.92" stop-color="#fbcf08" stop-opacity="0.5"/><stop offset="0.95" stop-color="#fbd405" stop-opacity="0.68"/><stop offset="0.99" stop-color="#fbde00"/><stop offset="1" stop-color="#fbde00"/></linearGradient><radialGradient id="radial-gradient-5" cx="0" cy="0" r="1" gradientTransform="matrix(2.31, 0, 0, -1.98, 284.91, 544.97)" gradientUnits="userSpaceOnUse"><stop offset="0" stop-color="#fff" stop-opacity="0.85"/><stop offset="0.37" stop-color="#fff" stop-opacity="0.85"/><stop offset="1" stop-color="#fff" stop-opacity="0"/></radialGradient><linearGradient id="linear-gradient-16" x2="1" gradientTransform="matrix(19.86, 21.4, 21.4, -19.86, 284.33, 524.14)" gradientUnits="userSpaceOnUse"><stop offset="0" stop-color="#fff" stop-opacity="0.85"/><stop offset="0.05" stop-color="#fff" stop-opacity="0.85"/><stop offset="0.1" stop-color="#fff" stop-opacity="0.5"/><stop offset="0.14" stop-color="#fce08c" stop-opacity="0.4"/><stop offset="0.18" stop-color="#fac935" stop-opacity="0.33"/><stop offset="0.2" stop-color="#f9c013" stop-opacity="0.3"/><stop offset="0.48" stop-color="#fbcf08" stop-opacity="0.2"/><stop offset="0.59" stop-color="#faca0b" stop-opacity="0.29"/><stop offset="0.8" stop-color="#f9c013" stop-opacity="0.5"/><stop offset="0.82" stop-color="#facb3b" stop-opacity="0.5"/><stop offset="0.86" stop-color="#fde6a1" stop-opacity="0.5"/><stop offset="0.89" stop-color="#fff" stop-opacity="0.5"/><stop offset="0.95" stop-color="#fff" stop-opacity="0.85"/><stop offset="1" stop-color="#fff" stop-opacity="0.85"/></linearGradient><radialGradient id="radial-gradient-6" gradientTransform="matrix(0.74, -0.36, 0.68, 1.42, 286.48, 525.54)" xlink:href="#radial-gradient-2"/><linearGradient id="linear-gradient-17" x2="1" gradientTransform="matrix(19.74, 21.46, 21.46, -19.74, 283.47, 521.47)" gradientUnits="userSpaceOnUse"><stop offset="0" stop-color="#32150c"/><stop offset="0.09" stop-color="#32150c"/><stop offset="0.15" stop-color="#32150c" stop-opacity="0.5"/><stop offset="0.32" stop-color="#32150c" stop-opacity="0"/><stop offset="0.58" stop-color="#32150c" stop-opacity="0.3"/><stop offset="0.91" stop-color="#32150c" stop-opacity="0"/><stop offset="0.97" stop-color="#32150c"/><stop offset="1" stop-color="#32150c"/></linearGradient><linearGradient id="linear-gradient-18" x2="1" gradientTransform="matrix(6.31, 0, 0, -6.31, 298.93, 516.39)" gradientUnits="userSpaceOnUse"><stop offset="0" stop-color="#fbde00"/><stop offset="0.06" stop-color="#fbde00"/><stop offset="0.08" stop-color="#f3d600" stop-opacity="0.98"/><stop offset="0.12" stop-color="#dec102" stop-opacity="0.93"/><stop offset="0.16" stop-color="#bc9f04" stop-opacity="0.84"/><stop offset="0.21" stop-color="#8c6f07" stop-opacity="0.72"/><stop offset="0.27" stop-color="#4f320a" stop-opacity="0.57"/><stop offset="0.29" stop-color="#32150c" stop-opacity="0.5"/><stop offset="0.42" stop-color="#32150c"/><stop offset="0.56" stop-color="#32150c"/><stop offset="0.66" stop-color="#32150c" stop-opacity="0.5"/><stop offset="0.8" stop-color="#32150c" stop-opacity="0"/><stop offset="1" stop-color="#32150c" stop-opacity="0"/></linearGradient><linearGradient id="linear-gradient-19" x2="1" gradientTransform="matrix(-1.83, -2.25, -2.25, 1.83, 288.58, 544.68)" gradientUnits="userSpaceOnUse"><stop offset="0" stop-color="#fbde00"/><stop offset="0.01" stop-color="#fbde00"/><stop offset="0.03" stop-color="#f4d700" stop-opacity="0.97"/><stop offset="0.06" stop-color="#e1c402" stop-opacity="0.87"/><stop offset="0.09" stop-color="#c2a503" stop-opacity="0.72"/><stop offset="0.13" stop-color="#977a06" stop-opacity="0.5"/><stop offset="0.18" stop-color="#604309" stop-opacity="0.23"/><stop offset="0.22" stop-color="#32150c" stop-opacity="0"/><stop offset="0.39" stop-color="#32150c"/><stop offset="0.7" stop-color="#32150c" stop-opacity="0.5"/><stop offset="0.98" stop-color="#32150c" stop-opacity="0"/><stop offset="1" stop-color="#32150c" stop-opacity="0"/></linearGradient><linearGradient id="linear-gradient-20" x2="1" gradientTransform="matrix(4.23, -5.43, -5.43, -4.23, 300.66, 528.08)" gradientUnits="userSpaceOnUse"><stop offset="0" stop-color="#fbde00" stop-opacity="0"/><stop offset="0.87" stop-color="#fbde00" stop-opacity="0"/><stop offset="0.88" stop-color="#efd002" stop-opacity="0.08"/><stop offset="0.9" stop-color="#ceab06" stop-opacity="0.3"/><stop offset="0.92" stop-color="#996f0e" stop-opacity="0.65"/><stop offset="0.94" stop-color="#653515"/><stop offset="1" stop-color="#653515"/></linearGradient><radialGradient id="radial-gradient-7" cx="0" cy="0" r="1" gradientTransform="translate(628.6 525.68) scale(1.55 1.55)" gradientUnits="userSpaceOnUse"><stop offset="0" stop-color="#fff" stop-opacity="0.85"/><stop offset="0.94" stop-color="#fff" stop-opacity="0"/><stop offset="1" stop-color="#fff" stop-opacity="0"/></radialGradient><radialGradient id="radial-gradient-8" gradientTransform="matrix(1.38, 0.33, -0.17, 0.72, 300.94, 523.59)" xlink:href="#radial-gradient-2"/><radialGradient id="radial-gradient-9" gradientTransform="translate(302.55 534.35) rotate(90) scale(11.05 0.27)" xlink:href="#radial-gradient-3"/><radialGradient id="radial-gradient-10" gradientTransform="matrix(0.24, 28.59, -0.3, 0, 302.47, 531.99)" xlink:href="#radial-gradient-4"/><radialGradient id="radial-gradient-11" gradientTransform="translate(285.84 534.49) rotate(90) scale(15.15 0.28)" xlink:href="#radial-gradient-4"/><radialGradient id="radial-gradient-12" gradientTransform="matrix(0, 12.32, 0.22, 0, 285.93, 536.32)" xlink:href="#radial-gradient-3"/><radialGradient id="radial-gradient-13" gradientTransform="matrix(10.31, 11.14, 0.22, -0.21, 293.33, 532.81)" xlink:href="#radial-gradient-3"/><radialGradient id="radial-gradient-14" gradientTransform="matrix(19.78, 21.17, -0.18, 0.17, 292.92, 532.58)" xlink:href="#radial-gradient-4"/><linearGradient id="linear-gradient-21" x2="1" gradientTransform="matrix(5.21, 20.47, 20.47, -5.21, 309.27, 523.96)" gradientUnits="userSpaceOnUse"><stop offset="0" stop-color="#fbde00"/><stop offset="0.02" stop-color="#fbde00"/><stop offset="0.04" stop-color="#fbde00"/><stop offset="0.93" stop-color="#fbde00"/><stop offset="0.94" stop-color="#f4d601"/><stop offset="0.94" stop-color="#e0c004"/><stop offset="0.95" stop-color="#c09c08"/><stop offset="0.96" stop-color="#946a0e"/><stop offset="0.97" stop-color="#653515"/><stop offset="1" stop-color="#653515"/></linearGradient><linearGradient id="linear-gradient-22" x2="1" gradientTransform="matrix(6.13, -19.2, -19.2, -6.13, 312.56, 543.24)" gradientUnits="userSpaceOnUse"><stop offset="0" stop-color="#653515"/><stop offset="0.93" stop-color="#653515"/><stop offset="0.96" stop-color="#a7800c"/><stop offset="0.99" stop-color="#fbde00"/><stop offset="1" stop-color="#fbde00"/></linearGradient><linearGradient id="linear-gradient-23" x2="1" gradientTransform="matrix(0, -12.12, -12.12, 0, 307.39, 535.57)" gradientUnits="userSpaceOnUse"><stop offset="0" stop-color="#653515"/><stop offset="0.97" stop-color="#653515"/><stop offset="0.98" stop-color="#a7800c"/><stop offset="1" stop-color="#fbde00"/></linearGradient><linearGradient id="linear-gradient-24" x2="1" gradientTransform="matrix(0, -9.3, -9.3, 0, 307.39, 532.76)" gradientUnits="userSpaceOnUse"><stop offset="0" stop-color="#fbde00"/><stop offset="0.93" stop-color="#fbde00"/><stop offset="1" stop-color="#fbde00"/></linearGradient><linearGradient id="linear-gradient-25" gradientTransform="matrix(0, 17.43, 17.43, 0, 307.39, 525.06)" xlink:href="#linear-gradient-3"/><linearGradient id="linear-gradient-26" gradientTransform="matrix(0, 18.08, 18.08, 0, 307.39, 524.3)" xlink:href="#linear-gradient-4"/><linearGradient id="linear-gradient-27" x2="1" gradientTransform="matrix(-1.45, -2.19, -2.19, 1.45, 316.17, 544.77)" gradientUnits="userSpaceOnUse"><stop offset="0" stop-color="#fbde00"/><stop offset="0.02" stop-color="#fbde00"/><stop offset="0.04" stop-color="#f4d700" stop-opacity="0.97"/><stop offset="0.07" stop-color="#e1c402" stop-opacity="0.87"/><stop offset="0.11" stop-color="#c2a503" stop-opacity="0.72"/><stop offset="0.15" stop-color="#977a06" stop-opacity="0.5"/><stop offset="0.2" stop-color="#604309" stop-opacity="0.23"/><stop offset="0.24" stop-color="#32150c" stop-opacity="0"/><stop offset="0.4" stop-color="#32150c"/><stop offset="0.73" stop-color="#32150c" stop-opacity="0.5"/><stop offset="0.98" stop-color="#32150c" stop-opacity="0"/><stop offset="1" stop-color="#32150c" stop-opacity="0"/></linearGradient><linearGradient id="linear-gradient-28" x2="1" gradientTransform="matrix(1.58, -1.46, -1.46, -1.58, 314.61, 524.5)" gradientUnits="userSpaceOnUse"><stop offset="0" stop-color="#fbde00" stop-opacity="0"/><stop offset="0.67" stop-color="#fbde00" stop-opacity="0"/><stop offset="0.72" stop-color="#efd002" stop-opacity="0.08"/><stop offset="0.79" stop-color="#ceab06" stop-opacity="0.3"/><stop offset="0.88" stop-color="#996f0e" stop-opacity="0.65"/><stop offset="0.95" stop-color="#653515"/><stop offset="1" stop-color="#653515"/></linearGradient><linearGradient id="linear-gradient-29" gradientTransform="matrix(6.54, 0, 0, -6.54, 310.04, 516.39)" xlink:href="#linear-gradient-7"/><linearGradient id="linear-gradient-30" gradientTransform="matrix(5.7, 0, 0, -5.7, 322.04, 516.39)" xlink:href="#linear-gradient-7"/><linearGradient id="linear-gradient-31" x2="1" gradientTransform="matrix(-1.44, 5.55, 5.55, 1.44, 319.3, 533.1)" gradientUnits="userSpaceOnUse"><stop offset="0" stop-color="#32150c"/><stop offset="0.18" stop-color="#32150c" stop-opacity="0.5"/><stop offset="0.4" stop-color="#32150c" stop-opacity="0"/><stop offset="1" stop-color="#32150c" stop-opacity="0"/></linearGradient><linearGradient id="linear-gradient-32" x2="1" gradientTransform="matrix(10.81, 5.6, 5.6, -10.81, 321.48, 539.28)" gradientUnits="userSpaceOnUse"><stop offset="0" stop-color="#32150c" stop-opacity="0"/><stop offset="0.28" stop-color="#32150c"/><stop offset="0.68" stop-color="#32150c" stop-opacity="0.5"/><stop offset="0.72" stop-color="#6e5108" stop-opacity="0.65"/><stop offset="0.75" stop-color="#a08305" stop-opacity="0.77"/><stop offset="0.78" stop-color="#c7aa03" stop-opacity="0.87"/><stop offset="0.81" stop-color="#e4c701" stop-opacity="0.94"/><stop offset="0.83" stop-color="#f5d800" stop-opacity="0.98"/><stop offset="0.84" stop-color="#fbde00"/><stop offset="1" stop-color="#fbde00"/></linearGradient><radialGradient id="radial-gradient-15" gradientTransform="matrix(2.43, 0, 0, -2.43, 326.78, 543.35)" xlink:href="#radial-gradient-2"/><radialGradient id="radial-gradient-16" cx="0" cy="0" r="1" gradientTransform="matrix(0.95, 0.08, -0.05, 0.58, 316.73, 532.7)" gradientUnits="userSpaceOnUse"><stop offset="0" stop-color="#32150c"/><stop offset="0.52" stop-color="#32150c" stop-opacity="0.5"/><stop offset="1" stop-color="#32150c" stop-opacity="0"/></radialGradient><linearGradient id="linear-gradient-33" x2="1" gradientTransform="matrix(2.22, -2.2, -2.2, -2.22, 325.07, 525.11)" gradientUnits="userSpaceOnUse"><stop offset="0" stop-color="#fbde00" stop-opacity="0"/><stop offset="0.76" stop-color="#fbde00" stop-opacity="0"/><stop offset="0.79" stop-color="#efd002" stop-opacity="0.08"/><stop offset="0.84" stop-color="#ceab06" stop-opacity="0.3"/><stop offset="0.9" stop-color="#996f0e" stop-opacity="0.65"/><stop offset="0.96" stop-color="#653515"/><stop offset="1" stop-color="#653515"/></linearGradient><radialGradient id="radial-gradient-17" gradientTransform="matrix(2.13, 0, 0, -1.43, 312.66, 544.7)" xlink:href="#radial-gradient-5"/><radialGradient id="radial-gradient-18" gradientTransform="matrix(1.28, 0.28, -0.19, 0.85, 312.17, 523.58)" xlink:href="#radial-gradient-2"/><radialGradient id="radial-gradient-19" cx="0" cy="0" r="1" gradientTransform="matrix(1.96, 0, 0, -1.96, 315.6, 532.72)" gradientUnits="userSpaceOnUse"><stop offset="0" stop-color="#fff" stop-opacity="0.85"/><stop offset="0.43" stop-color="#fff" stop-opacity="0.5"/><stop offset="1" stop-color="#fff" stop-opacity="0"/></radialGradient><radialGradient id="radial-gradient-20" cx="0" cy="0" r="1" gradientTransform="translate(323.1 523.57) scale(0.54)" gradientUnits="userSpaceOnUse"><stop offset="0" stop-color="#fff" stop-opacity="0.85"/><stop offset="0.46" stop-color="#fff" stop-opacity="0.5"/><stop offset="1" stop-color="#fff" stop-opacity="0"/></radialGradient><radialGradient id="radial-gradient-21" gradientTransform="matrix(8.02, -8.22, 0.06, 0.06, 320.22, 528.23)" xlink:href="#radial-gradient-3"/><radialGradient id="radial-gradient-22" gradientTransform="matrix(6.65, 6.95, 0.18, -0.18, 320.01, 537.47)" xlink:href="#radial-gradient-4"/><radialGradient id="radial-gradient-23" gradientTransform="matrix(5.89, 6.25, 0.16, -0.15, 319.92, 537.35)" xlink:href="#radial-gradient-3"/><radialGradient id="radial-gradient-24" gradientTransform="translate(313.5 533.79) rotate(90) scale(16.98 0.22)" xlink:href="#radial-gradient-3"/><radialGradient id="radial-gradient-25" gradientTransform="matrix(4.48, -4.6, 0.1, 0.1, 320.42, 528.03)" xlink:href="#radial-gradient-4"/><radialGradient id="radial-gradient-26" gradientTransform="translate(313.52 533.58) rotate(90) scale(27.47 0.35)" xlink:href="#radial-gradient-4"/></defs><text x="326.63" y="-15.99"/><path class="cls-1" d="M-312.92,439.22a2.41,2.41,0,0,1-2.42,2.41,2.41,2.41,0,0,1-2.41-2.41,2.41,2.41,0,0,1,2.41-2.42A2.42,2.42,0,0,1-312.92,439.22Z" transform="translate(326.63 -15.99)"/><circle class="cls-1" cx="6.47" cy="415.75" r="2.42"/><circle class="cls-1" cx="2.42" cy="407.7" r="2.42"/><text x="326.63" y="-15.99"/><circle class="cls-2" cx="295.28" cy="431.53" r="134.47" transform="translate(107.98 319.2) rotate(-45)"/><circle class="cls-3" cx="295.28" cy="431.53" r="85.82" transform="translate(107.98 319.2) rotate(-45)"/><path class="cls-3" d="M295.28,560.56a129,129,0,1,1,129-129A129.17,129.17,0,0,1,295.28,560.56Zm0-251.1A122.07,122.07,0,1,0,417.35,431.53,122.21,122.21,0,0,0,295.28,309.46Z" transform="translate(326.63 -15.99)"/><path class="cls-3" d="M295.28,568.08c-75.29,0-136.55-61.25-136.55-136.55S220,295,295.28,295s136.56,61.26,136.56,136.55S370.58,568.08,295.28,568.08Zm0-268.93c-73,0-132.38,59.39-132.38,132.38s59.39,132.38,132.38,132.38A132.52,132.52,0,0,0,427.66,431.53C427.66,358.54,368.28,299.15,295.28,299.15Z" transform="translate(326.63 -15.99)"/><path class="cls-3" d="M185.78,431.53a3.43,3.43,0,1,0,3.42-3.42A3.42,3.42,0,0,0,185.78,431.53Z" transform="translate(326.63 -15.99)"/><path class="cls-3" d="M396.08,431.53a3.42,3.42,0,1,0,3.42-3.42A3.42,3.42,0,0,0,396.08,431.53Z" transform="translate(326.63 -15.99)"/><text class="cls-4" transform="translate(588.74 478.19) scale(0.83 1)">da</text><path class="cls-5" d="M262.1,367.71l-9.77,12.87s8.15-9,9.77,0" transform="translate(326.63 -15.99)"/><path class="cls-5" d="M328.46,495.35l9.78-12.86s-8.15,9-9.78,0" transform="translate(326.63 -15.99)"/><text class="cls-6" transform="translate(526.34 410.12) rotate(-82.77)"> </text><text class="cls-6" transform="matrix(0.19, -0.98, 0.98, 0.19, 527.11, 404.01)"> </text><text class="cls-6" transform="matrix(0.25, -0.97, 0.97, 0.25, 528.27, 397.92)"> </text><text class="cls-6" transform="translate(529.3 392.07) rotate(-68.13)">D</text><text class="cls-6" transform="translate(536.3 374.47) rotate(-57.02)">U</text><text class="cls-6" transform="matrix(0.65, -0.76, 0.76, 0.65, 546.79, 358.98)"> </text><text class="cls-6" transform="matrix(0.74, -0.68, 0.68, 0.74, 550.34, 354.19)">A</text><text class="cls-6" transform="matrix(0.83, -0.55, 0.55, 0.83, 563.3, 342.4)">L</text><text class="cls-6" transform="translate(574.15 335.02) rotate(-25.08)">V</text><text class="cls-6" transform="translate(588.12 328.3) rotate(-15.43)">A</text><text class="cls-6" transform="translate(604.98 323.67) rotate(-5.7)">R</text><text class="cls-6" transform="translate(620.24 322.15) rotate(3.03)">E</text><text class="cls-6" transform="translate(634.14 322.84) rotate(11.31)">S</text><text class="cls-6" transform="translate(647.99 325.78) rotate(17.41)"> </text><text class="cls-6" transform="translate(653.83 327.36) rotate(23.17)">T</text><text class="cls-6" transform="translate(666.3 332.43) rotate(32.22)">A</text><text class="cls-6" transform="matrix(0.75, 0.66, -0.66, 0.75, 680.42, 341.35)">T</text><text class="cls-6" transform="translate(691.23 350.75) rotate(49.64)">T</text><text class="cls-6" transform="matrix(0.51, 0.86, -0.86, 0.51, 700.5, 361.17)">O</text><text class="cls-6" transform="matrix(0.32, 0.95, -0.95, 0.32, 710.5, 378.01)">O</text><path class="cls-7" d="M278.14,544.29c-1,0-2.27,0-2.87-.07l-.36,0-.46,0c-.63,0-1.67.07-2.26.07-.41,0-.43-.08-.43-.1s.05-.07.2-.07a4,4,0,0,0,.84-.06c.59-.11.71-1,.81-1.79.14-1.17.14-3.32.14-6v-4.9c0-4.34,0-5.12-.05-6s-.23-1.67-1.24-1.82a4.54,4.54,0,0,0-.78-.06c-.28,0-.34,0-.34-.07s.11-.1.43-.1c.94,0,2.18.05,2.77.07l.37,0,.47,0c.63,0,1.67-.07,2.26-.07.32,0,.43.06.43.1s-.1.07-.29.07a3.13,3.13,0,0,0-.72.06c-.74.15-.89,1-.94,1.82s-.06,1.67-.06,6v4.9c0,2.72,0,4.87.14,6,.09.81.25,1.68,1.1,1.79a8.81,8.81,0,0,0,1.2.06c.18,0,.24,0,.24.07s0,.1-.6.1" transform="translate(326.63 -15.99)"/><path class="cls-8" d="M277.64,523.26c-.83,0-2.59.08-2.73.08s-1.89-.08-3.14-.08c-.32,0-.43,0-.44.1a4.57,4.57,0,0,1,3.58,1.24,5.58,5.58,0,0,1,1.16-.89,3.44,3.44,0,0,1,2-.35c0-.05-.16-.1-.45-.1" transform="translate(326.63 -15.99)"/><path class="cls-7" d="M276.13,543.87a4.46,4.46,0,0,1-1.22-.89,5.28,5.28,0,0,1-1.13.88,3.39,3.39,0,0,1-2,.36s.12.08.44.08c.83,0,2.59-.08,2.72-.08s1.87.08,3.23.08c.45,0,.57,0,.6-.08a5.32,5.32,0,0,1-2.61-.35" transform="translate(326.63 -15.99)"/><path class="cls-9" d="M278.51,544.11a8.81,8.81,0,0,1-1.2-.06c-.59-.08-.85-.54-1-1.09-.05-.22-.08-.46-.11-.69-.14-1.17-.14-3.37-.14-6v-4.9c0-4.34,0-5.12.06-6a5,5,0,0,1,.08-.72c.12-.59.35-1,.84-1.09a3.17,3.17,0,0,1,.72-.06c.17,0,.31,0,.31-.08h0a3.44,3.44,0,0,0-2,.35,5.22,5.22,0,0,0-1.15.89V543a4.23,4.23,0,0,0,1.21.89,5.32,5.32,0,0,0,2.61.35l0,0s0-.08-.25-.08" transform="translate(326.63 -15.99)"/><path class="cls-10" d="M273.63,523.74a4.74,4.74,0,0,0-2.3-.38h0c0,.06.12.08.37.08a4.73,4.73,0,0,1,.78.06,1.28,1.28,0,0,1,1.12,1.09,5,5,0,0,1,.1.72c.06.89.06,1.67.06,6v4.9c0,2.67,0,4.87-.14,6,0,.23-.07.47-.12.69-.11.55-.3,1-.69,1.09a3.91,3.91,0,0,1-.84.06c-.19,0-.22,0-.22.08a0,0,0,0,0,0,0,3.39,3.39,0,0,0,2-.36,5.28,5.28,0,0,0,1.13-.88V524.6a4.78,4.78,0,0,0-1.28-.86" transform="translate(326.63 -15.99)"/><path class="cls-11" d="M276.22,542.27c-.14-1.17-.14-3.37-.14-6v-4.9c0-4.34,0-5.12.06-6a5,5,0,0,1,.08-.72,1.42,1.42,0,0,1,.48-.93l-.17-.17a2.35,2.35,0,0,0-.46.21,5.58,5.58,0,0,0-1.16.89v17.9h1.34l0-.23" transform="translate(326.63 -15.99)"/><path class="cls-12" d="M274.91,524.67h-1.3a4.28,4.28,0,0,1,.08.65c.06.89.06,1.67.06,6v4.9c0,2.67,0,4.87-.14,6l0,.13h1.32V524.67" transform="translate(326.63 -15.99)"/><path class="cls-13" d="M277.06,523.51a3.17,3.17,0,0,1,.72-.06c.17,0,.31,0,.31-.08h0a4.83,4.83,0,0,0-1.56.14l.17.17a.85.85,0,0,1,.36-.16" transform="translate(326.63 -15.99)"/><path class="cls-14" d="M278.51,544.11a8.81,8.81,0,0,1-1.2-.06c-.59-.08-.85-.54-1-1.09,0-.15-.06-.31-.08-.46h-1.34V543a4.46,4.46,0,0,0,1.22.89,5.32,5.32,0,0,0,2.61.35l0,0s0-.08-.25-.08" transform="translate(326.63 -15.99)"/><path class="cls-15" d="M277.64,523.26c-.83,0-2.59.08-2.73.08s-1.89-.08-3.14-.08c-.32,0-.43,0-.44.1a4.57,4.57,0,0,1,3.58,1.24,5.58,5.58,0,0,1,1.16-.89,3.44,3.44,0,0,1,2-.35c0-.05-.16-.1-.45-.1" transform="translate(326.63 -15.99)"/><path class="cls-16" d="M276.13,543.87a4.46,4.46,0,0,1-1.22-.89,5.28,5.28,0,0,1-1.13.88,3.39,3.39,0,0,1-2,.36s.12.08.44.08c.83,0,2.59-.08,2.72-.08s1.87.08,3.23.08c.45,0,.57,0,.6-.08a5.32,5.32,0,0,1-2.61-.35" transform="translate(326.63 -15.99)"/><path class="cls-17" d="M274.91,524.6a4.57,4.57,0,0,0-3.58-1.24h0c0,.06.12.08.37.08a4.73,4.73,0,0,1,.78.06,1.28,1.28,0,0,1,1.12,1.09.64.64,0,0,1,0,.07h1.3v-.07" transform="translate(326.63 -15.99)"/><path class="cls-18" d="M278.51,544.11a8.81,8.81,0,0,1-1.2-.06c-.59-.08-.85-.54-1-1.09-.05-.22-.08-.46-.11-.69-.14-1.17-.14-3.37-.14-6v-4.9c0-4.34,0-5.12.06-6a5,5,0,0,1,.08-.72c.12-.59.35-1,.84-1.09a3.17,3.17,0,0,1,.72-.06c.17,0,.31,0,.31-.08h0a3.44,3.44,0,0,0-2,.35,5.22,5.22,0,0,0-1.15.89V543a4.23,4.23,0,0,0,1.21.89,5.32,5.32,0,0,0,2.61.35l0,0s0-.08-.25-.08" transform="translate(326.63 -15.99)"/><path class="cls-19" d="M273.63,523.74a4.74,4.74,0,0,0-2.3-.38h0c0,.06.12.08.37.08a4.73,4.73,0,0,1,.78.06,1.28,1.28,0,0,1,1.12,1.09,5,5,0,0,1,.1.72c.06.89.06,1.67.06,6v4.9c0,2.67,0,4.87-.14,6,0,.23-.07.47-.12.69-.11.55-.3,1-.69,1.09a3.91,3.91,0,0,1-.84.06c-.19,0-.22,0-.22.08a0,0,0,0,0,0,0,3.39,3.39,0,0,0,2-.36,5.28,5.28,0,0,0,1.13-.88V524.6a4.78,4.78,0,0,0-1.28-.86" transform="translate(326.63 -15.99)"/><path class="cls-7" d="M302.94,544.48c-.22,0-.58-.34-2-1.78-.3-.27-4.3-4.35-7.27-7.54-3.19-3.44-6.32-6.93-7.26-8h0l.36,13.34c.06,2.48.4,3.44,1.26,3.54a8.81,8.81,0,0,0,1.2.06c.18,0,.24,0,.24.07s0,.1-.6.1c-1,0-2.05,0-2.54-.08H286l-.46,0c-.6,0-1.62.07-2.21.07-.41,0-.43-.08-.43-.1s.05-.07.21-.07a9.07,9.07,0,0,0,.91-.06c1-.11,1.06-1.32,1.06-3.85v-4.12c0-5.29,0-6.81,0-7.82s0-1.45,0-4c0-1.16.1-1.38.29-1.38s.47.35.72.62l.25.27c.41.46,4.53,4.92,8.85,9.55,1.45,1.55,3,3.25,4.24,4.61s2,2.22,2.44,2.65h0l-.3-14.14a8.49,8.49,0,0,0-.19-2.09,1.1,1.1,0,0,0-1.05-.84,8.81,8.81,0,0,0-1.2-.06c-.17,0-.23,0-.23-.07s0-.1.59-.1c1,0,2.06.05,2.55.07l.29,0,.41,0c.53,0,1.42-.07,2-.07.42,0,.44.08.44.1s-.06.07-.21.07a9.07,9.07,0,0,0-.92.06c-.88.11-.88.83-.88,2.77l-.05,16.25c0,1.87-.06,2-.24,2" transform="translate(326.63 -15.99)"/><path class="cls-8" d="M302.58,541.84l0,0v0a2.33,2.33,0,0,1-.43.51l0,0,0,.06a2.11,2.11,0,0,0,.47-.52l-.05,0" transform="translate(326.63 -15.99)"/><path class="cls-7" d="M285.94,543a5.18,5.18,0,0,1-1.12.88,3.21,3.21,0,0,1-1.94.36s.12.08.44.08c.83,0,2.53-.08,2.67-.08s1.48.08,2.84.08c.44,0,.57,0,.6-.08a4.67,4.67,0,0,1-2.29-.33,5.17,5.17,0,0,1-1.2-.91" transform="translate(326.63 -15.99)"/><path class="cls-8" d="M301.3,523.64a3.7,3.7,0,0,1,1.12.8,3.34,3.34,0,0,1,.92-.79,3.5,3.5,0,0,1,1.91-.29s-.07-.1-.45-.1c-.83,0-2.28.08-2.42.08s-1.47-.08-2.84-.08c-.53,0-.6.07-.61.1a5.33,5.33,0,0,1,2.37.28" transform="translate(326.63 -15.99)"/><path class="cls-20" d="M305.25,523.36a3.5,3.5,0,0,0-1.91.29,3.34,3.34,0,0,0-.92.79h0l.15,17.36a1.21,1.21,0,0,1-.45.53c.08.18.84,2,.89,2.15.14-.05.18-.36.18-2l.06-16.25c0-1.92,0-2.65.86-2.76.25,0,.67-.06.92-.06s.22-.05.22-.08h0" transform="translate(326.63 -15.99)"/><path class="cls-21" d="M286.26,525.45c-.08-.19-.9-2.57-.9-2.57-.19,0-.26.37-.26,1.38,0,5.4,0,1.78,0,11.83v4.12c0,2.53-.11,3.73-1.06,3.84-.25,0-.66.06-.91.06s-.23,0-.23.08v0a3.21,3.21,0,0,0,1.94-.36,5.18,5.18,0,0,0,1.12-.88l-.16-17.06c0-.19.26-.34.48-.47" transform="translate(326.63 -15.99)"/><path class="cls-8" d="M301.91,540.57c-.89-.92-3.92-4.31-6.68-7.26-4.29-4.6-8.43-9.08-8.85-9.55-.28-.28-.75-.89-1-.89h-.05s.82,2.38.9,2.57l15.86,16.88a1.21,1.21,0,0,0,.45-.53l-.66-1.23" transform="translate(326.63 -15.99)"/><path class="cls-22" d="M302.42,524.44a3.7,3.7,0,0,0-1.12-.8,5.33,5.33,0,0,0-2.37-.28h0s0,.08.25.08a8.81,8.81,0,0,1,1.2.06c1.17.14,1.2,1.11,1.22,2.92l.31,14.14.66,1.23-.15-17.36" transform="translate(326.63 -15.99)"/><path class="cls-8" d="M285.94,543a5.17,5.17,0,0,0,1.2.91,4.67,4.67,0,0,0,2.29.33,0,0,0,0,0,0,0s0-.08-.25-.08a8.81,8.81,0,0,1-1.2-.06c-.91-.11-1.19-1.25-1.25-3.53l-.36-13.34-.6-1.26.16,17.06" transform="translate(326.63 -15.99)"/><path class="cls-23" d="M302.12,542.33l-15.86-16.88c-.22.13-.44.28-.48.47l.6,1.26c.89,1,4,4.51,7.26,8,2.95,3.17,7,7.27,7.27,7.54,1.47,1.48,1.81,1.79,2,1.79l.07,0c-.05-.11-.81-2-.89-2.15" transform="translate(326.63 -15.99)"/><path class="cls-24" d="M286.74,540.52l-.36-13.34-.6-1.26.15,16.38h.94a16.18,16.18,0,0,1-.13-1.78" transform="translate(326.63 -15.99)"/><path class="cls-25" d="M285.11,526c0,3,0,1.39,0,10.13v4.12a15.82,15.82,0,0,1-.14,2.68h1L285.78,526h-.67" transform="translate(326.63 -15.99)"/><path class="cls-26" d="M302.42,524.44h0l.15,17.36a1.21,1.21,0,0,1-.45.53c.08.18.84,2,.89,2.15.14-.05.18-.36.18-2l.06-16.25a7.29,7.29,0,0,1,.17-2.25l-.43-.14a3.8,3.8,0,0,0-.57.56" transform="translate(326.63 -15.99)"/><path class="cls-27" d="M301.45,524.44a8.87,8.87,0,0,1,.15,2l.31,14.14.66,1.23-.15-17.36h-1" transform="translate(326.63 -15.99)"/><path class="cls-28" d="M285.94,543a5.18,5.18,0,0,1-1.12.88,3.21,3.21,0,0,1-1.94.36s.12.08.44.08c.83,0,2.53-.08,2.67-.08s1.48.08,2.84.08c.44,0,.57,0,.6-.08a4.67,4.67,0,0,1-2.29-.33,5.17,5.17,0,0,1-1.2-.91" transform="translate(326.63 -15.99)"/><path class="cls-29" d="M302.12,542.33l-15.86-16.88c-.22.13-.44.28-.48.47l.6,1.26c.89,1,4,4.51,7.26,8,2.95,3.17,7,7.27,7.27,7.54,1.47,1.48,1.81,1.79,2,1.79l.07,0c-.05-.11-.81-2-.89-2.15" transform="translate(326.63 -15.99)"/><path class="cls-30" d="M285.78,525.92c0-.19.26-.34.48-.47-.08-.19-.9-2.57-.9-2.57-.19,0-.26.37-.26,1.38,0,.7,0,1.25,0,1.7h.67v0" transform="translate(326.63 -15.99)"/><path class="cls-31" d="M301.91,540.57c-.89-.92-3.92-4.31-6.68-7.26-4.29-4.6-8.43-9.08-8.85-9.55-.28-.28-.75-.89-1-.89h-.05s.82,2.38.9,2.57l15.86,16.88a1.21,1.21,0,0,0,.45-.53l-.66-1.23" transform="translate(326.63 -15.99)"/><path class="cls-32" d="M301.3,523.64a3.7,3.7,0,0,1,1.12.8,3.34,3.34,0,0,1,.92-.79,3.5,3.5,0,0,1,1.91-.29s-.07-.1-.45-.1c-.83,0-2.28.08-2.42.08s-1.47-.08-2.84-.08c-.53,0-.6.07-.61.1a5.33,5.33,0,0,1,2.37.28" transform="translate(326.63 -15.99)"/><path class="cls-33" d="M289.19,544.11a8.81,8.81,0,0,1-1.2-.06c-.63-.08-1-.65-1.12-1.75h-.94V543a5.17,5.17,0,0,0,1.2.91,4.67,4.67,0,0,0,2.29.33,0,0,0,0,0,0,0s0-.08-.25-.08" transform="translate(326.63 -15.99)"/><path class="cls-34" d="M305.25,523.36a3.5,3.5,0,0,0-1.91.29l-.35.23.43.14a.76.76,0,0,1,.69-.51c.25,0,.67-.06.92-.06s.22-.05.22-.08h0" transform="translate(326.63 -15.99)"/><polygon class="cls-35" points="628.52 523.67 628.54 524.58 629.2 525.81 629.18 523.67 628.52 523.67"/><path class="cls-36" d="M302.42,524.44a3.7,3.7,0,0,0-1.12-.8,5.33,5.33,0,0,0-2.37-.28h0s0,.08.25.08a8.81,8.81,0,0,1,1.2.06,1.12,1.12,0,0,1,1.07.93h1" transform="translate(326.63 -15.99)"/><path class="cls-37" d="M305.25,523.36a3.5,3.5,0,0,0-1.91.29,3.34,3.34,0,0,0-.92.79h0l.15,17.36a1.21,1.21,0,0,1-.45.53c.08.18.84,2,.89,2.15.14-.05.18-.36.18-2l.06-16.25c0-1.92,0-2.65.86-2.76.25,0,.67-.06.92-.06s.22-.05.22-.08h0" transform="translate(326.63 -15.99)"/><path class="cls-38" d="M302.42,524.44a3.7,3.7,0,0,0-1.12-.8,5.33,5.33,0,0,0-2.37-.28h0s0,.08.25.08a8.81,8.81,0,0,1,1.2.06c1.17.14,1.2,1.11,1.22,2.92l.31,14.14.66,1.23-.15-17.36" transform="translate(326.63 -15.99)"/><path class="cls-39" d="M286.26,525.45c-.08-.19-.9-2.57-.9-2.57-.19,0-.26.37-.26,1.38,0,5.4,0,1.78,0,11.83v4.12c0,2.53-.11,3.73-1.06,3.84-.25,0-.66.06-.91.06s-.23,0-.23.08v0a3.21,3.21,0,0,0,1.94-.36,5.18,5.18,0,0,0,1.12-.88l-.16-17.06c0-.19.26-.34.48-.47" transform="translate(326.63 -15.99)"/><path class="cls-40" d="M285.94,543a5.17,5.17,0,0,0,1.2.91,4.67,4.67,0,0,0,2.29.33,0,0,0,0,0,0,0s0-.08-.25-.08a8.81,8.81,0,0,1-1.2-.06c-.91-.11-1.19-1.25-1.25-3.53l-.36-13.34-.6-1.26.16,17.06" transform="translate(326.63 -15.99)"/><path class="cls-41" d="M301.91,540.57c-.89-.92-3.92-4.31-6.68-7.26-4.29-4.6-8.43-9.08-8.85-9.55-.28-.28-.75-.89-1-.89h-.05s.82,2.38.9,2.57l15.86,16.88a1.21,1.21,0,0,0,.45-.53l-.66-1.23" transform="translate(326.63 -15.99)"/><path class="cls-42" d="M302.12,542.33l-15.86-16.88c-.22.13-.44.28-.48.47l.6,1.26c.89,1,4,4.51,7.26,8,2.95,3.17,7,7.27,7.27,7.54,1.47,1.48,1.81,1.79,2,1.79l.07,0c-.05-.11-.81-2-.89-2.15" transform="translate(326.63 -15.99)"/><path class="cls-7" d="M316.63,544.29c-1,0-2.21,0-2.78-.07l-.33,0-.47,0c-.62,0-1.67.07-2.26.07-.41,0-.43-.08-.43-.1s.05-.07.21-.07a3.91,3.91,0,0,0,.83-.06c.59-.11.71-1,.82-1.79.13-1.17.13-3.32.13-6v-4.9c0-4.34,0-5.12-.05-6s-.17-1.68-1.12-1.82a4.73,4.73,0,0,0-.78-.06c-.29,0-.35,0-.35-.07s.11-.1.43-.1c.94,0,2.12.05,2.68.07l.36,0,.44,0c.59,0,1.58-.07,2.17-.07.32,0,.43.06.43.1s-.1.07-.29.07a3.13,3.13,0,0,0-.72.06c-.74.15-.89,1-.94,1.82s-.06,1.67-.06,6v4.9c0,2.72,0,4.87.14,6,.09.81.25,1.68,1.1,1.79a8.81,8.81,0,0,0,1.2.06c.18,0,.24,0,.24.07s0,.1-.6.1m11.59,0c-2.46,0-3.08-.33-4.36-1.34a108.35,108.35,0,0,1-9.13-9.6l-.1-.14.1-.1c.57-.55,2.45-2.51,4.1-4.23l2.25-2.34c1.8-1.86,1.95-2.27,1.95-2.57s-.23-.54-.74-.54c-.14,0-.23,0-.23-.07s.08-.1.4-.1.61,0,.85,0,.52.05,1,.05,1.29,0,1.91-.05l1,0c.34,0,.46.06.46.1s-.09.07-.29.07a2.87,2.87,0,0,0-1.26.22,13.57,13.57,0,0,0-3.06,2.54c-2.41,2.32-5.61,5.49-6.35,6.32v0c1.69,1.85,6.52,7,7.85,8.29,2.34,2.2,3.27,3,4.6,3.23a8.11,8.11,0,0,0,1.2.06c.22,0,.26.06.26.08s0,.1-.4.1h-2.06" transform="translate(326.63 -15.99)"/><path class="cls-8" d="M324,524.4c.41-.2,1.08-.52,1.61-.74a5.11,5.11,0,0,1,2.19-.3c0-.05-.16-.1-.48-.1s-2.08.08-2.95.08-1.05-.08-1.86-.08c-.29,0-.41,0-.42.1.71,0,.92,0,1.3.3a2.94,2.94,0,0,1,.61.74" transform="translate(326.63 -15.99)"/><path class="cls-8" d="M313.52,524.6a4.68,4.68,0,0,1,1.09-.89,3.22,3.22,0,0,1,2-.35c0-.05-.16-.1-.45-.1-.83,0-2.47.08-2.61.08s-1.78-.08-3-.08c-.31,0-.43,0-.44.1a4.62,4.62,0,0,1,2.28.35,4.23,4.23,0,0,1,1.2.89" transform="translate(326.63 -15.99)"/><path class="cls-7" d="M314.7,543.89a4.15,4.15,0,0,1-1.18-.91,5.28,5.28,0,0,1-1.13.89,3.39,3.39,0,0,1-2.05.32s0,.11.45.11c.83,0,2.59-.08,2.73-.08s1.75.08,3.11.08c.59,0,.62-.08.62-.11a5.28,5.28,0,0,1-2.55-.3" transform="translate(326.63 -15.99)"/><path class="cls-43" d="M312.31,523.71a4.56,4.56,0,0,0-2.27-.35h0c0,.06.11.08.36.08a4.73,4.73,0,0,1,.78.06c.92.14,1.06.86,1.11,1.81s.06,1.67.06,6v4.9c0,2.67,0,4.87-.14,6-.11.81-.25,1.67-.81,1.78a3.87,3.87,0,0,1-.83.06c-.2,0-.23,0-.23.08a3.39,3.39,0,0,0,2.05-.32,5.28,5.28,0,0,0,1.13-.89V524.6a4.16,4.16,0,0,0-1.21-.89" transform="translate(326.63 -15.99)"/><path class="cls-44" d="M317,544.11a8.81,8.81,0,0,1-1.2-.06c-.84-.11-1-1-1.09-1.78-.14-1.17-.14-3.37-.14-6v-4.9c0-4.34,0-5.12.06-6s.25-1.67.92-1.81a3.17,3.17,0,0,1,.72-.06c.17,0,.31,0,.31-.08h0a3.22,3.22,0,0,0-2,.35,4.68,4.68,0,0,0-1.09.89V543a4.15,4.15,0,0,0,1.18.91,5.28,5.28,0,0,0,2.55.3s0-.08-.25-.08" transform="translate(326.63 -15.99)"/><path class="cls-8" d="M330.42,544.11a8.24,8.24,0,0,1-1.2-.06c-1.33-.25-2.31-1.09-4.59-3.23-1.31-1.22-6.09-6.37-7.85-8.29l-.84.09a.85.85,0,0,0-.07.38c2.22,2.42,7.93,8.54,8.89,9.32,2.41,2,3.63,1.87,5.94,1.87,0,0-.06-.08-.28-.08" transform="translate(326.63 -15.99)"/><path class="cls-7" d="M324.76,542.32c-1-.78-6.67-6.9-8.89-9.32-.06,0-1.26.22-1.26.22l.11.14a105.25,105.25,0,0,0,9.13,9.6c1.31,1,1.95,1.34,4.37,1.34h2.06c.36,0,.42-.08.42-.11-2.31,0-3.53.11-5.94-1.87" transform="translate(326.63 -15.99)"/><path class="cls-45" d="M323.13,526.21a13.18,13.18,0,0,1,3.06-2.53,2.7,2.7,0,0,1,1.25-.23c.22,0,.31,0,.31-.08h0a5.11,5.11,0,0,0-2.19.3c-.53.22-1.2.54-1.61.74l-8,8.22.84-.09c.73-.81,3.9-3.95,6.35-6.32" transform="translate(326.63 -15.99)"/><path class="cls-46" d="M315.94,532.62l8-8.22a2.94,2.94,0,0,0-.61-.74c-.38-.3-.59-.3-1.3-.3h0c0,.06.11.08.25.08.53,0,.73.2.73.53s-.28.84-1.95,2.56-5.48,5.74-6.35,6.57l-.09.11s1.18-.22,1.24-.22a.85.85,0,0,1,.07-.38" transform="translate(326.63 -15.99)"/><path class="cls-47" d="M313.52,524.6v17.9h1.22l0-.23c-.14-1.17-.14-3.37-.14-6v-4.9c0-4.34,0-5.12.06-6a5,5,0,0,1,.08-.72h-1.19" transform="translate(326.63 -15.99)"/><path class="cls-48" d="M313.52,524.67h-1.29a6,6,0,0,1,.06.65c.06.89.06,1.67.06,6v4.9c0,2.67,0,4.87-.14,6l0,.13h1.33V524.67" transform="translate(326.63 -15.99)"/><path class="cls-49" d="M317,544.11a8.81,8.81,0,0,1-1.2-.06c-.76-.1-1-.82-1.06-1.56h-1.22V543a4.15,4.15,0,0,0,1.18.91,5.28,5.28,0,0,0,2.55.3s0-.08-.25-.08" transform="translate(326.63 -15.99)"/><path class="cls-50" d="M316.58,523.36a3.6,3.6,0,0,0-1.76.24l.22.21a.88.88,0,0,1,.51-.3,3.17,3.17,0,0,1,.72-.06c.17,0,.31,0,.31-.08h0" transform="translate(326.63 -15.99)"/><path class="cls-51" d="M313.52,524.6a4.68,4.68,0,0,1,1.09-.89,3.22,3.22,0,0,1,2-.35c0-.05-.16-.1-.45-.1-.83,0-2.47.08-2.61.08s-1.78-.08-3-.08c-.31,0-.43,0-.44.1a4.62,4.62,0,0,1,2.28.35,4.23,4.23,0,0,1,1.2.89" transform="translate(326.63 -15.99)"/><path class="cls-52" d="M324,524.4c.41-.2,1.08-.52,1.61-.74a5.11,5.11,0,0,1,2.19-.3c0-.05-.16-.1-.48-.1s-2.08.08-2.95.08-1.05-.08-1.86-.08c-.29,0-.41,0-.42.1.71,0,.92,0,1.3.3a2.94,2.94,0,0,1,.61.74" transform="translate(326.63 -15.99)"/><path class="cls-53" d="M316.78,532.53l-.84.09a.85.85,0,0,0-.07.38c1.13,1.23,3.17,3.43,5,5.4l.7-.7c-1.78-1.88-3.81-4.06-4.82-5.17" transform="translate(326.63 -15.99)"/><path class="cls-54" d="M330.42,544.11a8.24,8.24,0,0,1-1.2-.06c-1.33-.25-2.31-1.09-4.59-3.23-.55-.52-1.73-1.74-3-3.12l-.7.7c1.78,1.88,3.39,3.54,3.86,3.92,2.41,2,3.63,1.87,5.94,1.87,0,0-.06-.08-.28-.08" transform="translate(326.63 -15.99)"/><path class="cls-55" d="M324.76,542.32c-.2-.16-.61-.55-1.14-1.09l-.82.81c.42.39.78.71,1.05.92,1.31,1,1.95,1.34,4.37,1.34h2.06c.36,0,.42-.08.42-.11-2.31,0-3.53.11-5.94-1.87" transform="translate(326.63 -15.99)"/><path class="cls-56" d="M315.94,532.62l.84-.09c.1-.12.26-.28.45-.48h-.74l-.55.57" transform="translate(326.63 -15.99)"/><path class="cls-57" d="M327.75,523.36a5,5,0,0,0-2.18.3l.23.23a2.54,2.54,0,0,1,.39-.21,2.7,2.7,0,0,1,1.25-.23c.22,0,.31,0,.31-.08h0" transform="translate(326.63 -15.99)"/><path class="cls-58" d="M314.7,543.89a4.15,4.15,0,0,1-1.18-.91,5.28,5.28,0,0,1-1.13.89,3.39,3.39,0,0,1-2.05.32s0,.11.45.11c.83,0,2.59-.08,2.73-.08s1.75.08,3.11.08c.59,0,.62-.08.62-.11a5.28,5.28,0,0,1-2.55-.3" transform="translate(326.63 -15.99)"/><path class="cls-59" d="M313.52,524.6a4.16,4.16,0,0,0-1.21-.89,4.56,4.56,0,0,0-2.27-.35h0c0,.06.11.08.36.08a4.73,4.73,0,0,1,.78.06,1.18,1.18,0,0,1,1,1.15h1.3v-.06" transform="translate(326.63 -15.99)"/><path class="cls-60" d="M315.87,533c-.06,0-1.26.22-1.26.22l.11.14c.42.5.9,1.06,1.43,1.66l.82-.82c-.42-.46-.8-.86-1.1-1.2" transform="translate(326.63 -15.99)"/><path class="cls-61" d="M324,524.4a2.94,2.94,0,0,0-.61-.74c-.38-.3-.59-.3-1.3-.3h0c0,.06.11.08.25.08.53,0,.73.2.73.53a1,1,0,0,1-.15.46h1.05l0,0" transform="translate(326.63 -15.99)"/><path class="cls-62" d="M324,524.4l-8,8.22.84-.09c.73-.81,3.9-3.95,6.35-6.32.6-.58,1.09-1,1.5-1.4l-.5-.5-.18.09" transform="translate(326.63 -15.99)"/><path class="cls-63" d="M315.87,533c-.06,0-1.26.22-1.26.22l.11.14a114.06,114.06,0,0,0,8.91,9.42l.77-.78c-1.57-1.5-6.51-6.79-8.53-9" transform="translate(326.63 -15.99)"/><path class="cls-64" d="M324.63,540.82c-1.31-1.22-6.09-6.37-7.85-8.29l-.84.09a.85.85,0,0,0-.07.38c2,2.21,7,7.5,8.53,9l.72-.72-.49-.46" transform="translate(326.63 -15.99)"/><path class="cls-65" d="M317,544.11a8.81,8.81,0,0,1-1.2-.06c-.84-.11-1-1-1.09-1.78-.14-1.17-.14-3.37-.14-6v-4.9c0-4.34,0-5.12.06-6s.25-1.67.92-1.81a3.17,3.17,0,0,1,.72-.06c.17,0,.31,0,.31-.08h0a3.22,3.22,0,0,0-2,.35,4.68,4.68,0,0,0-1.09.89V543a4.15,4.15,0,0,0,1.18.91,5.28,5.28,0,0,0,2.55.3s0-.08-.25-.08" transform="translate(326.63 -15.99)"/><path class="cls-66" d="M323.34,523.66c-.38-.3-.59-.3-1.3-.3h0c0,.06.11.08.25.08.53,0,.73.2.73.53s-.28.84-1.95,2.56c-1.35,1.4-4,4.2-5.49,5.71l.36.37,8-8.22a2.94,2.94,0,0,0-.61-.74" transform="translate(326.63 -15.99)"/><path class="cls-67" d="M312.31,523.71a4.56,4.56,0,0,0-2.27-.35h0c0,.06.11.08.36.08a4.73,4.73,0,0,1,.78.06c.92.14,1.06.86,1.11,1.81s.06,1.67.06,6v4.9c0,2.67,0,4.87-.14,6-.11.81-.25,1.67-.81,1.78a3.87,3.87,0,0,1-.83.06c-.2,0-.23,0-.23.08a3.39,3.39,0,0,0,2.05-.32,5.28,5.28,0,0,0,1.13-.89V524.6a4.16,4.16,0,0,0-1.21-.89" transform="translate(326.63 -15.99)"/></svg>